<?xml version="1.0" encoding="UTF-8" standalone="no"?>
<!DOCTYPE svg PUBLIC "-//W3C//DTD SVG 1.1//EN" "http://www.w3.org/Graphics/SVG/1.1/DTD/svg11.dtd">
<svg width="100%" height="100%" viewBox="0 0 948 1281" version="1.1" xmlns="http://www.w3.org/2000/svg" xmlns:xlink="http://www.w3.org/1999/xlink" xml:space="preserve" xmlns:serif="http://www.serif.com/" style="fill-rule:evenodd;clip-rule:evenodd;stroke-linejoin:round;stroke-miterlimit:2;">
    <g transform="matrix(1,0,0,1,-1184.97,-759.483)">
        <g transform="matrix(4.16667,0,0,4.16667,0,0)">
            <path d="M471.396,333.245C466.262,333.245 462.101,329.081 462.101,323.947C462.101,318.815 466.262,314.651 471.396,314.651C476.53,314.651 480.694,318.815 480.694,323.947C480.694,329.081 476.53,333.245 471.396,333.245ZM420.567,333.245C416.143,333.245 412.554,329.659 412.554,325.234C412.554,320.809 416.143,317.222 420.567,317.222C424.995,317.222 428.579,320.809 428.579,325.234C428.579,329.659 424.995,333.245 420.567,333.245ZM384.417,353.741C381.801,353.741 379.678,351.621 379.678,348.997C379.678,346.379 381.801,344.253 384.417,344.253C387.031,344.253 389.157,346.379 389.157,348.997C389.157,351.621 387.031,353.741 384.417,353.741ZM384.417,287.555C386.343,287.555 387.907,289.12 387.907,291.048C387.907,292.98 386.343,294.542 384.417,294.542C382.489,294.542 380.923,292.98 380.923,291.048C380.923,289.12 382.489,287.555 384.417,287.555ZM316.6,348.837C310.081,348.837 304.798,343.552 304.798,337.036C304.798,330.518 310.081,325.234 316.6,325.234C323.119,325.234 328.401,330.518 328.401,337.036C328.401,343.552 323.119,348.837 316.6,348.837ZM448.668,273.867C448.2,277.334 445.258,280.016 441.662,280.016C437.739,280.016 434.559,276.836 434.559,272.912C434.559,271.254 435.148,269.75 436.1,268.542C424.226,264.34 411.458,262.032 398.145,262.032C378.652,262.032 360.31,266.942 344.273,275.582C346.915,277.747 348.602,281.033 348.602,284.714C348.602,291.229 343.319,296.515 336.8,296.515C331.505,296.515 327.027,293.028 325.532,288.229C300.401,309.094 284.392,340.567 284.392,375.784C284.392,426.398 317.458,469.271 363.16,484.032C364.343,456.711 365.639,427.42 365.639,427.42C365.639,427.42 366.118,422.115 363.434,417.922C352.672,415.076 344.578,402.802 344.578,388.09C344.578,371.271 355.156,357.634 368.208,357.634C381.257,357.634 391.834,371.271 391.834,388.09C391.834,402.963 383.562,415.338 372.62,418.004C371.088,420.641 370.398,424.859 370.777,430.442C371.088,435.014 372.312,461.799 373.432,486.813C381.391,488.576 389.653,489.537 398.145,489.537C407.027,489.537 415.656,488.486 423.95,486.56C425.117,459.832 426.167,436.079 426.167,436.079C426.167,436.079 427.03,426.673 420.902,421.653C420.484,421.433 420.054,421.243 419.593,421.121C414.851,419.842 406.642,415.467 406.826,403.243C406.826,403.143 406.83,403.03 406.832,402.924C406.826,402.436 406.822,401.938 406.832,401.418C407.014,391.201 409.384,357.634 409.384,357.634L413.761,357.634L413.042,394.107C413.04,394.155 413.028,394.198 413.028,394.245C413.028,394.277 413.036,394.307 413.038,394.338L413.034,394.486C413.034,394.486 413.047,394.507 413.055,394.523C413.2,396.315 414.68,397.727 416.509,397.727C418.335,397.727 419.818,396.317 419.963,394.529C419.971,394.518 419.979,394.51 419.987,394.5C421.083,359.838 421.243,357.634 421.243,357.634L426.209,357.634L426.209,392.917C426.209,392.954 426.2,392.989 426.2,393.025C426.2,394.756 427.603,396.158 429.333,396.158C430.5,396.158 431.508,395.511 432.045,394.563C432.092,394.486 432.135,394.409 432.171,394.334C432.197,394.277 432.222,394.22 432.244,394.161C432.297,394.021 432.338,393.887 432.371,393.758C432.384,393.693 432.398,393.63 432.408,393.565C432.441,393.376 432.453,393.218 432.455,393.106C432.457,393.078 432.465,393.053 432.465,393.025C432.465,392.996 432.455,392.966 432.455,392.932L433.1,357.634L437.297,357.634L438.206,390.413C438.206,390.424 438.204,390.431 438.204,390.438C438.204,390.452 438.208,390.464 438.208,390.479C438.232,392.225 439.651,393.634 441.4,393.634C443.082,393.634 444.446,392.333 444.572,390.685C444.58,390.675 444.587,390.671 444.591,390.661L444.591,390.505C444.591,390.479 444.597,390.46 444.597,390.438C444.597,390.407 444.589,390.379 444.587,390.348C444.233,369.182 444.591,357.634 444.591,357.634L448.424,357.634C448.424,357.634 450.376,378.646 451.275,393.435C451.275,393.457 451.275,393.479 451.277,393.502C451.34,394.535 451.397,395.539 451.449,396.501C451.567,398.439 451.679,400.121 451.701,401.418C451.712,401.944 451.708,402.445 451.701,402.939C451.703,403.04 451.707,403.146 451.708,403.243C451.89,415.467 443.683,419.842 438.937,421.121C438.48,421.243 438.048,421.433 437.632,421.653C431.504,426.673 432.365,436.079 432.365,436.079C432.365,436.079 432.922,448.667 433.675,465.823L433.667,465.823C433.921,471.29 434.198,477.305 434.482,483.572C479.48,468.408 511.897,425.896 511.897,375.784C511.897,331.113 486.135,292.478 448.668,273.867Z" style="fill:rgb(142,210,202);fill-rule:nonzero;"/>
        </g>
        <g transform="matrix(4.16667,0,0,4.16667,0,0)">
            <path d="M307.805,262.032C307.805,255.029 313.482,249.351 320.485,249.351C327.488,249.351 333.165,255.029 333.165,262.032C333.165,269.034 327.488,274.712 320.485,274.712C313.482,274.712 307.805,269.034 307.805,262.032Z" style="fill:rgb(242,187,87);fill-rule:nonzero;"/>
        </g>
        <g transform="matrix(4.16667,0,0,4.16667,0,0)">
            <path d="M402.273,228.559C402.273,230.661 400.57,232.364 398.47,232.364C396.369,232.364 394.665,230.661 394.665,228.559C394.665,226.459 396.369,224.756 398.47,224.756C400.57,224.756 402.273,226.459 402.273,228.559Z" style="fill:rgb(142,210,202);fill-rule:nonzero;"/>
        </g>
        <g transform="matrix(4.16667,0,0,4.16667,0,0)">
            <path d="M383.831,195.313C383.831,200.369 379.732,204.467 374.68,204.467C369.624,204.467 365.525,200.369 365.525,195.313C365.525,190.261 369.624,186.163 374.68,186.163C379.732,186.163 383.831,190.261 383.831,195.313Z" style="fill:rgb(142,210,202);fill-rule:nonzero;"/>
        </g>
        <g transform="matrix(4.16667,0,0,4.16667,0,0)">
            <path d="M462.504,193.372C462.504,199.499 457.539,204.467 451.409,204.467C445.282,204.467 440.313,199.499 440.313,193.372C440.313,187.244 445.282,182.276 451.409,182.276C457.539,182.276 462.504,187.244 462.504,193.372Z" style="fill:rgb(141,198,65);fill-rule:nonzero;"/>
        </g>
        <g transform="matrix(4.16667,0,0,4.16667,0,0)">
            <path d="M461.113,246.249C461.113,249.889 458.156,252.843 454.514,252.843C450.873,252.843 447.916,249.889 447.916,246.249C447.916,242.604 450.873,239.65 454.514,239.65C458.156,239.65 461.113,242.604 461.113,246.249Z" style="fill:rgb(235,112,94);fill-rule:nonzero;"/>
        </g>
    </g>
</svg>
